<svg width="1440" height="146" viewBox="0 0 1440 146" fill="none" xmlns="http://www.w3.org/2000/svg">
<path d="M18.7678 73.432H663.697" stroke="#832729"/>
<path d="M776.303 73.432H1421.23" stroke="#832729"/>
<path d="M759.839 64.7321C755.232 64.7321 750.626 66.0321 746.531 68.4321C744.995 69.2321 743.545 70.2321 742.095 71.1321C741.412 71.5321 740.986 72.4321 741.071 73.3321C741.156 75.5321 740.303 77.6321 738.768 79.0321C736.806 81.1321 734.246 82.2321 731.602 82.1321C730.493 82.0321 729.469 81.7321 728.445 81.2321C728.019 81.0321 727.507 80.9321 727.081 81.1321C724.265 82.5321 721.28 83.5321 718.209 84.0321C713.943 84.6321 709.763 84.5321 705.754 82.4321C704.047 81.6321 702.597 80.3321 701.403 78.6321C700.891 77.9321 700.635 77.8321 699.953 78.3321C696.455 80.8321 692.531 82.6321 688.521 83.5321C683.829 84.5321 679.137 84.8321 674.616 82.6321C671.289 81.0321 668.815 78.5321 667.706 74.4321C667.109 72.3321 666.768 70.1321 667.621 68.0321C668.559 65.6321 670.18 63.8321 672.313 62.9321C676.237 61.0321 680.161 60.9321 683.915 63.6321C685.28 64.7321 686.389 66.2321 687.071 68.0321C687.156 68.2321 687.156 68.4321 686.986 68.6321C686.986 68.6321 686.9 68.6321 686.9 68.7321C686.73 68.9321 686.474 68.9321 686.303 68.7321C686.218 68.6321 686.133 68.5321 686.133 68.4321C684.938 65.5321 682.635 63.4321 679.905 63.0321C676.663 62.2321 673.336 63.1321 670.692 65.5321C667.962 67.7321 667.28 72.2321 669.156 75.4321C669.327 75.7321 669.583 76.0321 669.839 76.3321C671.545 78.6321 673.934 80.0321 676.493 80.5321C680.502 81.1321 684.512 80.8321 688.351 79.4321C691.678 78.3321 694.834 76.6321 697.735 74.5321C698.844 73.7321 699.014 73.2321 698.758 71.7321C697.82 66.4321 700.72 62.6321 704.559 61.8321C707.289 61.2321 710.019 61.9321 712.322 63.6321C713.09 64.2321 714.114 64.4321 714.967 63.9321C718.806 62.2321 722.9 61.5321 726.995 61.9321C730.493 62.2321 733.82 63.0321 736.806 65.4321C737.403 65.9321 738 66.5321 738.597 67.1321C739.024 67.7321 739.706 67.8321 740.218 67.3321C742.265 66.0321 744.313 64.9321 746.445 64.0321C751.052 62.0321 756.085 61.4321 760.948 62.2321C764.19 62.6321 767.175 64.1321 769.735 66.5321C771.697 68.2321 772.806 71.0321 772.806 73.8321C772.72 75.6321 772.038 77.3321 770.929 78.6321C769.393 80.6321 767.261 81.8321 764.957 82.2321C762.91 82.5321 760.863 82.0321 759.156 80.9321C758.815 80.7321 758.815 80.4321 758.986 80.0321C759.156 79.7321 759.412 79.6321 759.668 79.8321C761.118 81.0321 762.995 81.5321 764.701 81.1321C766.749 80.8321 768.711 79.7321 770.246 78.0321C772.464 75.5321 772.464 71.4321 770.332 68.8321C770.161 68.6321 769.905 68.3321 769.649 68.1321C767.772 66.5321 765.554 65.5321 763.251 65.2321C762.227 64.8321 761.033 64.7321 759.839 64.7321ZM702.256 77.0321C703.365 78.4321 704.815 79.3321 706.351 79.9321C708.995 80.7321 711.725 81.0321 714.37 80.6321C717.526 80.2321 720.597 79.3321 723.498 77.9321C724.095 77.6321 724.095 77.6321 723.668 77.1321C722.986 76.3321 722.389 75.5321 721.706 74.7321C720 72.6321 718.379 70.5321 716.588 68.7321C716.161 68.2321 715.479 68.1321 714.881 68.5321C710.531 70.8321 706.436 74.1321 702.256 77.0321ZM717.014 67.5321C719.573 70.2321 721.877 73.1321 724.18 76.0321C725.033 77.0321 725.204 77.1321 726.313 76.4321C730.152 74.1321 733.905 71.4321 737.573 68.9321C738.341 68.4321 738.341 68.4321 737.573 67.7321C735.953 66.4321 734.076 65.5321 732.114 65.2321C728.701 64.6321 725.289 64.7321 721.962 65.5321C720.256 65.8321 718.55 66.5321 717.014 67.5321ZM712.408 64.9321C712.322 64.8321 712.322 64.8321 712.322 64.8321C710.104 63.0321 707.289 62.2321 704.645 62.8321C701.403 63.3321 699.099 66.9321 699.526 70.7321C699.526 71.0321 699.611 71.3321 699.697 71.6321C699.953 72.9321 700.038 72.9321 700.976 72.2321C704.047 70.1321 707.118 67.9321 710.36 66.1321C711.043 65.7321 711.725 65.3321 712.408 64.9321ZM728.872 80.3321C729.213 80.5321 729.469 80.6321 729.64 80.7321C733.052 81.7321 736.635 80.4321 738.938 77.3321C739.877 76.0321 740.303 74.4321 740.218 72.7321C736.464 75.2321 732.882 77.9321 728.872 80.3321Z" fill="#84292B"/>
</svg>
