<svg width="30" height="34" viewBox="0 0 30 34" fill="none" xmlns="http://www.w3.org/2000/svg">
<path d="M29.25 13.8125H26.25V9.5625C26.25 8.97812 25.9125 8.5 25.5 8.5H24C23.5875 8.5 23.25 8.97812 23.25 9.5625V13.8125H20.25C19.8375 13.8125 19.5 14.2906 19.5 14.875V17C19.5 17.5844 19.8375 18.0625 20.25 18.0625H23.25V22.3125C23.25 22.8969 23.5875 23.375 24 23.375H25.5C25.9125 23.375 26.25 22.8969 26.25 22.3125V18.0625H29.25C29.6625 18.0625 30 17.5844 30 17V14.875C30 14.2906 29.6625 13.8125 29.25 13.8125ZM10.5 17C13.8141 17 16.5 13.1949 16.5 8.5C16.5 3.80508 13.8141 0 10.5 0C7.18594 0 4.5 3.80508 4.5 8.5C4.5 13.1949 7.18594 17 10.5 17ZM14.7 19.125H13.9172C12.8766 19.8023 11.7188 20.1875 10.5 20.1875C9.28125 20.1875 8.12813 19.8023 7.08281 19.125H6.3C2.82187 19.125 0 23.1227 0 28.05V30.8125C0 32.5723 1.00781 34 2.25 34H18.75C19.9922 34 21 32.5723 21 30.8125V28.05C21 23.1227 18.1781 19.125 14.7 19.125Z" fill="black"/>
</svg>
