<svg width="10" height="10" viewBox="0 0 10 10" fill="none" xmlns="http://www.w3.org/2000/svg">
<path d="M5 10C2.2379 10 0 7.7621 0 5C0 2.2379 2.2379 0 5 0C7.7621 0 10 2.2379 10 5C10 7.7621 7.7621 10 5 10ZM5.58266 7.10484L4.06048 5.64516H7.74194C8.01008 5.64516 8.22581 5.42944 8.22581 5.16129V4.83871C8.22581 4.57056 8.01008 4.35484 7.74194 4.35484H4.06048L5.58266 2.89516C5.77823 2.70766 5.78226 2.39516 5.59073 2.20363L5.36895 1.98387C5.17944 1.79435 4.87298 1.79435 4.68548 1.98387L2.01008 4.65726C1.82056 4.84677 1.82056 5.15323 2.01008 5.34073L4.68548 8.01613C4.875 8.20564 5.18145 8.20564 5.36895 8.01613L5.59073 7.79637C5.78226 7.60484 5.77823 7.29234 5.58266 7.10484Z" fill="black"/>
</svg>
