<svg width="10" height="10" viewBox="0 0 10 10" fill="none" xmlns="http://www.w3.org/2000/svg">
<path d="M5 0C7.7621 0 10 2.2379 10 5C10 7.7621 7.7621 10 5 10C2.2379 10 0 7.7621 0 5C0 2.2379 2.2379 0 5 0ZM4.41734 2.89516L5.93952 4.35484H2.25806C1.98992 4.35484 1.77419 4.57056 1.77419 4.83871V5.16129C1.77419 5.42944 1.98992 5.64516 2.25806 5.64516H5.93952L4.41734 7.10484C4.22177 7.29234 4.21774 7.60484 4.40927 7.79637L4.63105 8.01613C4.82056 8.20564 5.12702 8.20564 5.31452 8.01613L7.98992 5.34274C8.17943 5.15323 8.17943 4.84677 7.98992 4.65927L5.31452 1.98185C5.125 1.79234 4.81855 1.79234 4.63105 1.98185L4.40927 2.20161C4.21774 2.39516 4.22177 2.70766 4.41734 2.89516Z" fill="black"/>
</svg>
